# xmcd
#
# Track frame offsets:
#	150
#	14766
#	29786
#	42009
#	56017
#	69400
#	82927
#	97290
#	105648
#	122003
#	133470
#	145758
#	156855
#	168650
#	180071
#	193595
#	204709
#	218099
#	231167
#	245037
#
# Disc length: 3422 seconds
#
# Revision: 0
# Processed by: cddbd v1.4PL0 Copyright (c) Steve Scherf et al.
# Submitted via: dBpowerAMP V4.0
#
DISCID=280d5c14
DTITLE=Glen Campbell - The Collection
DYEAR=2000
DGENRE=Country
TTITLE0=Rhinestone Cowboy
TTITLE1=Your Cheatin Heart
TTITLE2=Galveston
TTITLE3=Country Boy (You Got Your Feet In LA)
TTITLE4=Gentle On My Mind
TTITLE5=Southern Nights
TTITLE6=Tennesse Home
TTITLE7=Twelve String Special
TTITLE8=California
TTITLE9=Everything A Man Could Ever Need
TTITLE10=By The Time I Get To Phoenix
TTITLE11=I'm So Lonesome I Could Cry
TTITLE12=Arkansas
TTITLE13=True Grit
TTITLE14=Oklahoma Sunday Morning
TTITLE15=It's Only Make Believe
TTITLE16=Honey Come Home
TTITLE17=Country Girl
TTITLE18=Witchita Lineman
TTITLE19=All I Have To Do Is Dream (with Bobbie Gentry)
EXTD=
EXTT0=
EXTT1=
EXTT2=
EXTT3=
EXTT4=
EXTT5=
EXTT6=
EXTT7=
EXTT8=
EXTT9=
EXTT10=
EXTT11=
EXTT12=
EXTT13=
EXTT14=
EXTT15=
EXTT16=
EXTT17=
EXTT18=
EXTT19=
PLAYORDER=
